<svg xmlns="http://www.w3.org/2000/svg" xmlns:xlink="http://www.w3.org/1999/xlink" viewBox="0 0 59.00725799999999 58.907210292707674" height="58.907210292707674" width="59.00725799999999" data-background-color="#ffffff" preserveAspectRatio="xMidYMid meet" id="tight-bounds"><g><svg viewBox="0 0 59.00725799999999 58.907210292707674" height="58.907210292707674" width="59.00725799999999"><g><svg viewBox="0 0 59.00725799999999 58.907210292707674" height="58.907210292707674" width="59.00725799999999"><g><svg viewBox="0 0 59.00725799999999 58.907210292707674" height="58.907210292707674" width="59.00725799999999"><g id="textblocktransform"><svg viewBox="0 0 59.00725799999999 58.907210292707674" height="58.907210292707674" width="59.00725799999999" id="textblock"><g><svg viewBox="0 0 59.00725799999999 58.907210292707674" height="58.907210292707674" width="59.00725799999999"><g><svg viewBox="0 0 59.00725799999999 58.907210292707674" height="58.907210292707674" width="59.00725799999999"><g><svg xmlns="http://www.w3.org/2000/svg" xml:space="preserve" viewBox="5.355000019073486 4.8339996337890625 89.65301513671875 89.50100708007812" x="0" y="0" height="58.907210292707674" width="59.00725799999999" class="icon-icon-0" data-fill-palette-color="accent" id="icon-0"><path fill="none" d="M7.493 44.441h19.614L17.3 22.337zM73.314 44.441H92.93l-9.807-22.103z"/><path d="M94.976 44.441a1.2 1.2 0 0 0-0.088-0.354l-10.424-23.5c0.506-0.327 0.82-0.774 0.82-1.269 0-1-1.278-1.811-2.855-1.811H53.014V8.16c0-1.837-1.247-3.326-2.785-3.326s-2.785 1.488-2.785 3.326v9.349H17.885c-1.577 0-2.855 0.811-2.855 1.811 0 0.521 0.353 0.988 0.909 1.319L5.535 44.086a1.2 1.2 0 0 0-0.088 0.354h-0.092q0.04 0.069 0.083 0.137c0 0.368 0.182 0.686 0.501 0.832 10.722 17.29 20.257 3.971 22.648 0.038 0.007-0.002 0.015 0 0.022-0.003 0.395-0.145 0.596-0.55 0.547-0.991l0.006-0.012h-0.009a1.2 1.2 0 0 0-0.088-0.354L18.88 21.13h28.564v57.464c0 0.35 0.058 0.681 0.142 0.997H34.165c-2.366 0-4.284 2.142-4.284 4.785 0 1.131 0.366 2.156 0.953 2.975h-6.522c-1.183 0-2.143 0.869-2.143 1.94v3.104c0 1.072 0.959 1.94 2.143 1.94h49.693c1.182 0 2.142-0.868 2.142-1.94v-3.104c0-1.071-0.96-1.94-2.142-1.94h-5.096a5.1 5.1 0 0 0 0.953-2.975c0-2.644-1.918-4.785-4.284-4.785H52.872c0.084-0.316 0.142-0.647 0.142-0.997V21.13h28.528L71.356 44.086a1.2 1.2 0 0 0-0.088 0.354h-0.02l0.014 0.023c-0.044 0.437 0.159 0.836 0.552 0.98 0.014 0.005 0.028 0.001 0.042 0.005 10.695 17.237 20.202 3.916 22.58-0.008 0.382-0.144 0.585-0.53 0.55-0.958l0.022-0.043h-0.032z m-87.483 0L17.3 22.337l9.807 22.104z m65.821 0l9.809-22.103 9.807 22.103z" fill="#35185a" data-fill-palette-color="accent"/></svg></g></svg></g></svg></g></svg></g></svg></g></svg></g></svg></g><defs/></svg>